G04 Layer_Physical_Order=2*
G04 Layer_Color=16711680*
%FSLAX25Y25*%
%MOIN*%
G70*
G01*
G75*
%ADD27C,0.05000*%
%ADD28C,0.03000*%
%ADD29C,0.15000*%
%ADD30C,0.16929*%
%ADD31C,0.06000*%
%ADD32R,0.06000X0.06000*%
%ADD33C,0.05906*%
%ADD34R,0.05906X0.05906*%
%ADD35C,0.11024*%
%ADD36R,0.06000X0.06000*%
%ADD37C,0.03500*%
%ADD38C,0.05000*%
%ADD39C,0.03500*%
D27*
X111000Y140000D02*
X137000Y114000D01*
X178000D01*
X207000Y143000D01*
X215000D01*
X27189Y124189D02*
X42500Y139500D01*
X76000Y177000D02*
X78500Y174500D01*
X97500Y139500D02*
X98000Y140000D01*
X78500Y139500D02*
X97500D01*
X78500D02*
Y174500D01*
X42500Y139500D02*
X78500D01*
X27189Y74504D02*
Y124189D01*
Y67811D02*
Y74504D01*
Y67811D02*
X39000Y56000D01*
X98000Y140000D02*
X111000D01*
D28*
X124000Y101000D02*
X154000D01*
X107000Y118000D02*
X124000Y101000D01*
D29*
X27189Y74504D02*
D03*
X39000Y56000D02*
D03*
D30*
X50811Y74504D02*
D03*
D31*
X230000Y200000D02*
D03*
X20000D02*
D03*
X230000Y20000D02*
D03*
X20000D02*
D03*
X164000Y101000D02*
D03*
X118000Y69000D02*
D03*
X210000Y108000D02*
D03*
X139000Y155000D02*
D03*
X176000Y143000D02*
D03*
D32*
X154000Y101000D02*
D03*
X128000Y69000D02*
D03*
X200000Y108000D02*
D03*
D33*
X215000Y143000D02*
D03*
D34*
Y133000D02*
D03*
D35*
X10496Y153000D02*
D03*
X29000D02*
D03*
X47504D02*
D03*
D36*
X139000Y165000D02*
D03*
X176000Y153000D02*
D03*
D37*
X157000Y191000D02*
D03*
X149000Y146000D02*
D03*
D38*
X78500Y139500D02*
D03*
X76000Y177000D02*
D03*
X98000Y140000D02*
D03*
X107000Y118000D02*
D03*
X137000Y114000D02*
D03*
D39*
X157000Y154000D02*
Y191000D01*
X149000Y146000D02*
X157000Y154000D01*
M02*
