G04 Layer_Color=16711935*
%FSLAX25Y25*%
%MOIN*%
G70*
G01*
G75*
%ADD41C,0.00394*%
D41*
X126638Y140299D02*
G03*
X126638Y140299I-1969J0D01*
G01*
X89268Y162331D02*
G03*
X89268Y162331I-1969J0D01*
G01*
X83095Y95244D02*
Y100756D01*
X94906Y95244D02*
Y100756D01*
X83095Y95244D02*
X94906D01*
X83095Y100756D02*
X94906D01*
X80866Y126342D02*
X89134D01*
X80866Y131658D02*
X89134D01*
Y126342D02*
Y131658D01*
X80866Y126342D02*
Y131658D01*
X152866Y162343D02*
Y167657D01*
X161134Y162343D02*
Y167657D01*
X152866D02*
X161134D01*
X152866Y162343D02*
X161134D01*
X173343Y122866D02*
Y131134D01*
X178657Y122866D02*
Y131134D01*
X173343Y122866D02*
X178657D01*
X173343Y131134D02*
X178657D01*
X139134Y176342D02*
Y181658D01*
X130866Y176342D02*
Y181658D01*
Y176342D02*
X139134D01*
X130866Y181658D02*
X139134D01*
X107343Y170866D02*
Y179134D01*
X112657Y170866D02*
Y179134D01*
X107343Y170866D02*
X112657D01*
X107343Y179134D02*
X112657D01*
X85343Y178866D02*
X90658D01*
X85343Y187134D02*
X90658D01*
X85343Y178866D02*
Y187134D01*
X90658Y178866D02*
Y187134D01*
X176079Y47701D02*
X185921D01*
X176079Y60299D02*
X185921D01*
X176079Y47701D02*
Y60299D01*
X185921Y47701D02*
Y60299D01*
X179051Y164996D02*
Y177004D01*
X172949Y164996D02*
Y177004D01*
X179051D01*
X172949Y164996D02*
X179051D01*
X178539Y101347D02*
X183461D01*
X178539Y94653D02*
X183461D01*
Y101347D01*
X178539Y94653D02*
Y101347D01*
X121126Y124158D02*
Y143842D01*
X136874Y124158D02*
Y143842D01*
X121126D02*
X136874D01*
X121126Y124158D02*
X136874D01*
X71157Y165874D02*
X90842D01*
X71157Y150126D02*
X90842D01*
Y165874D01*
X71157Y150126D02*
Y165874D01*
X102996Y105051D02*
X115004D01*
X102996Y98949D02*
X115004D01*
X102996D02*
Y105051D01*
X115004Y98949D02*
Y105051D01*
X81717Y55811D02*
Y82189D01*
X96284Y55811D02*
Y82189D01*
X81717D02*
X96284D01*
X81717Y55811D02*
X96284D01*
X230079Y47701D02*
X239921D01*
X230079Y60299D02*
X239921D01*
X230079Y47701D02*
Y60299D01*
X239921Y47701D02*
Y60299D01*
X128244Y107905D02*
X133756D01*
X128244Y96095D02*
X133756D01*
X128244D02*
Y107905D01*
X133756Y96095D02*
Y107905D01*
X143811Y56535D02*
X170189D01*
X143811Y80945D02*
X170189D01*
X143811Y56535D02*
Y80945D01*
X170189Y56535D02*
Y80945D01*
X197811Y56535D02*
X224189D01*
X197811Y80945D02*
X224189D01*
X197811Y56535D02*
Y80945D01*
X224189Y56535D02*
Y80945D01*
M02*
