G04 Layer_Color=255*
%FSLAX25Y25*%
%MOIN*%
G70*
G01*
G75*
%ADD10R,0.03150X0.03543*%
%ADD11R,0.03543X0.05315*%
%ADD12R,0.05315X0.03543*%
%ADD13R,0.09055X0.03543*%
%ADD14R,0.05906X0.03543*%
%ADD15R,0.03543X0.03543*%
%ADD16R,0.05984X0.02362*%
%ADD17R,0.02362X0.05984*%
%ADD18R,0.03543X0.05906*%
%ADD19R,0.07874X0.05906*%
%ADD20R,0.07874X0.14961*%
%ADD21R,0.04331X0.03150*%
%ADD22R,0.03543X0.03150*%
%ADD23R,0.06299X0.11811*%
%ADD24R,0.22835X0.24410*%
%ADD29C,0.15000*%
%ADD30C,0.16929*%
%ADD31C,0.06000*%
%ADD32R,0.06000X0.06000*%
%ADD33C,0.05906*%
%ADD34R,0.05906X0.05906*%
%ADD35C,0.11024*%
%ADD36R,0.06000X0.06000*%
D10*
X89000Y94063D02*
D03*
X85260Y101937D02*
D03*
X92740D02*
D03*
D11*
X89134Y129000D02*
D03*
X80866D02*
D03*
X152866Y165000D02*
D03*
X161134D02*
D03*
X139134Y179000D02*
D03*
X130866D02*
D03*
D12*
X176000Y122866D02*
D03*
Y131134D02*
D03*
X110000Y170866D02*
D03*
Y179134D02*
D03*
X88000Y178866D02*
D03*
Y187134D02*
D03*
D13*
X181000Y47898D02*
D03*
Y60102D02*
D03*
X235000Y47898D02*
D03*
Y60102D02*
D03*
D14*
X176000Y177102D02*
D03*
Y164898D02*
D03*
D15*
X181000Y102724D02*
D03*
Y93276D02*
D03*
D16*
X118213Y141500D02*
D03*
Y136500D02*
D03*
Y131500D02*
D03*
Y126500D02*
D03*
X139787Y141500D02*
D03*
Y136500D02*
D03*
Y131500D02*
D03*
Y126500D02*
D03*
D17*
X88500Y168787D02*
D03*
X83500D02*
D03*
X78500D02*
D03*
X73500D02*
D03*
X88500Y147213D02*
D03*
X83500D02*
D03*
X78500D02*
D03*
X73500D02*
D03*
D18*
X102898Y102000D02*
D03*
X115102D02*
D03*
D19*
X76598Y78055D02*
D03*
Y69000D02*
D03*
Y59945D02*
D03*
D20*
X101402Y69000D02*
D03*
D21*
X90118Y39047D02*
D03*
Y44953D02*
D03*
X79882D02*
D03*
Y39047D02*
D03*
D22*
X127063Y102000D02*
D03*
X134937Y105740D02*
D03*
Y98260D02*
D03*
D23*
X147984Y47717D02*
D03*
X166016D02*
D03*
X201984D02*
D03*
X220016D02*
D03*
D24*
X157000Y75984D02*
D03*
X211000D02*
D03*
D29*
X27189Y74504D02*
D03*
X39000Y56000D02*
D03*
D30*
X50811Y74504D02*
D03*
D31*
X230000Y200000D02*
D03*
X20000D02*
D03*
X230000Y20000D02*
D03*
X20000D02*
D03*
X164000Y101000D02*
D03*
X118000Y69000D02*
D03*
X210000Y108000D02*
D03*
X139000Y155000D02*
D03*
X176000Y143000D02*
D03*
D32*
X154000Y101000D02*
D03*
X128000Y69000D02*
D03*
X200000Y108000D02*
D03*
D33*
X215000Y143000D02*
D03*
D34*
Y133000D02*
D03*
D35*
X10496Y153000D02*
D03*
X29000D02*
D03*
X47504D02*
D03*
D36*
X139000Y165000D02*
D03*
X176000Y153000D02*
D03*
M02*
