G04 Layer_Color=32768*
%FSLAX25Y25*%
%MOIN*%
G70*
G01*
G75*
%ADD41C,0.00394*%
%ADD73C,0.00197*%
D41*
X87032Y98000D02*
X90969D01*
X89000Y96031D02*
Y99968D01*
X85000Y127032D02*
Y130968D01*
X83031Y129000D02*
X86968D01*
X155032Y165000D02*
X158968D01*
X157000Y163031D02*
Y166969D01*
X174031Y127000D02*
X177969D01*
X176000Y125031D02*
Y128969D01*
X133031Y179000D02*
X136969D01*
X135000Y177032D02*
Y180968D01*
X108031Y175000D02*
X111969D01*
X110000Y173031D02*
Y176969D01*
X88000Y181032D02*
Y184968D01*
X86032Y183000D02*
X89969D01*
X181000Y52031D02*
Y55968D01*
X179032Y54000D02*
X182968D01*
X174031Y171000D02*
X177969D01*
X176000Y169032D02*
Y172968D01*
X181000Y96031D02*
Y99968D01*
X179032Y98000D02*
X182968D01*
X127032Y134000D02*
X130968D01*
X129000Y132032D02*
Y135968D01*
X81000Y156032D02*
Y159968D01*
X79031Y158000D02*
X82968D01*
X109000Y100031D02*
Y103969D01*
X107032Y102000D02*
X110968D01*
X87032Y69000D02*
X90969D01*
X89000Y67032D02*
Y70969D01*
X235000Y52031D02*
Y55968D01*
X233032Y54000D02*
X236968D01*
X131000Y100031D02*
Y103969D01*
X129032Y102000D02*
X132968D01*
X157000Y63032D02*
Y66969D01*
X155032Y65000D02*
X158968D01*
X211000Y63032D02*
Y66969D01*
X209032Y65000D02*
X212968D01*
D73*
X82110Y90421D02*
Y105579D01*
X95890Y90421D02*
Y105579D01*
X82110Y90421D02*
X95890D01*
X82110Y105579D02*
X95890D01*
X78504Y125260D02*
X91496D01*
X78504Y132740D02*
X91496D01*
Y125260D02*
Y132740D01*
X78504Y125260D02*
Y132740D01*
X150504Y161260D02*
Y168740D01*
X163496Y161260D02*
Y168740D01*
X150504D02*
X163496D01*
X150504Y161260D02*
X163496D01*
X172260Y120504D02*
Y133496D01*
X179740Y120504D02*
Y133496D01*
X172260Y120504D02*
X179740D01*
X172260Y133496D02*
X179740D01*
X141496Y175260D02*
Y182740D01*
X128504Y175260D02*
Y182740D01*
Y175260D02*
X141496D01*
X128504Y182740D02*
X141496D01*
X106260Y168504D02*
Y181496D01*
X113740Y168504D02*
Y181496D01*
X106260Y168504D02*
X113740D01*
X106260Y181496D02*
X113740D01*
X84260Y176504D02*
X91740D01*
X84260Y189496D02*
X91740D01*
X84260Y176504D02*
Y189496D01*
X91740Y176504D02*
Y189496D01*
X175094Y45142D02*
X186906D01*
X175094Y62858D02*
X186906D01*
X175094Y45142D02*
Y62858D01*
X186906Y45142D02*
Y62858D01*
X180134Y162535D02*
Y179465D01*
X171866Y162535D02*
Y179465D01*
X180134D01*
X171866Y162535D02*
X180134D01*
X177850Y104595D02*
X184150D01*
X177850Y91405D02*
X184150D01*
Y104595D01*
X177850Y91405D02*
Y104595D01*
X114433Y123173D02*
Y144827D01*
X143567Y123173D02*
Y144827D01*
X114433D02*
X143567D01*
X114433Y123173D02*
X143567D01*
X70173Y172567D02*
X91827D01*
X70173Y143433D02*
X91827D01*
Y172567D01*
X70173Y143433D02*
Y172567D01*
X100535Y106134D02*
X117465D01*
X100535Y97866D02*
X117465D01*
X100535D02*
Y106134D01*
X117465Y97866D02*
Y106134D01*
X72268Y54827D02*
Y83173D01*
X105732Y54827D02*
Y83173D01*
X72268D02*
X105732D01*
X72268Y54827D02*
X105732D01*
X229095Y45142D02*
X240905D01*
X229095Y62858D02*
X240905D01*
X229095Y45142D02*
Y62858D01*
X240905Y45142D02*
Y62858D01*
X123421Y108890D02*
X138579D01*
X123421Y95110D02*
X138579D01*
X123421D02*
Y108890D01*
X138579Y95110D02*
Y108890D01*
X142827Y42165D02*
X171173D01*
X142827Y87835D02*
X171173D01*
X142827Y42165D02*
Y87835D01*
X171173Y42165D02*
Y87835D01*
X196827Y42165D02*
X225173D01*
X196827Y87835D02*
X225173D01*
X196827Y42165D02*
Y87835D01*
X225173Y42165D02*
Y87835D01*
M02*
