M48
;Layer_Color=9474304
;FILE_FORMAT=2:5
INCH,LZ
;TYPE=PLATED
T1F00S00C0.01500
T2F00S00C0.02800
T3F00S00C0.03543
T4F00S00C0.03700
T5F00S00C0.07087
T6F00S00C0.12000
T7F00S00C0.13780
%
T01
X0149Y0146
X0157Y0191
T02
X00785Y01395
X0076Y0177
X0098Y014
X0107Y0118
X0137Y0114
T03
X0215Y0133
Y0143
T04
X0118Y0069
X0128
X0154Y0101
X0164
X02Y0108
X021
X0176Y0143
Y0153
X0139Y0155
Y0165
T05
X0010496Y0153
X0029
X0047504
T06
X0039Y0056
X0027189Y0074504
T07
X023Y002
X002
X0050811Y0074504
X002Y02
X023
M30
